<?xml version="1.0" encoding="utf-8"?>
<!-- Generator: Adobe Illustrator 27.1.1, SVG Export Plug-In . SVG Version: 6.00 Build 0)  -->
<svg version="1.1" id="Capa_1" xmlns="http://www.w3.org/2000/svg" xmlns:xlink="http://www.w3.org/1999/xlink" x="0px" y="0px"
	 viewBox="0 0 601.8 415.3" style="enable-background:new 0 0 601.8 415.3;" xml:space="preserve">
<style type="text/css">
	.st0{fill:#41AC9C;stroke:#FFFFFF;stroke-width:7;stroke-miterlimit:10;}
</style>
<path class="st0" d="M585.3,208.1c-0.3,23.4-6.6,46.4-18.4,66.7c-23.9,41.5-67.4,67.8-115.2,69.6c-43,1.5-81.2-14.2-107.6-44.1
	l-5.2-6.7L313,256.7l0,0l-11.6-16.5l-9.9-14.1l-13.6-19.4l-7.6-10.9l-0.6-0.8l-26.4-37.5c-27.2-42.4-83.7-54.8-126.1-27.6
	s-54.8,83.7-27.6,126.1c27.2,42.4,83.7,54.8,126.1,27.6c8.5-5.4,16-12.3,22.3-20.2l0.4-0.5l3.1-4.2l1.4-2c1.2-1.7,2.6-3.2,4.3-4.5
	c9.9-8.8,25.1-7.8,33.9,2.2c6.2,7.1,7.7,17.1,3.9,25.7c-0.1,0.4-0.3,0.7-0.5,1.1c-1.1,1.4-2,2.9-3.1,4.2l-2.2,2.5
	c-1.3,1.4-2.6,2.9-3.9,4.2C228.1,352,141.2,362.6,81,315.4S10.3,181.3,57.5,121.2s134.1-70.7,194.2-23.5
	c12.1,9.5,22.5,20.9,30.8,33.7l4.2,6.1l16.9,23.9c4.2,5.9,8.5,11.8,12.3,17.6l5,7.2l0,0v0.2c4.8,6.7,9.6,13.4,14.2,20.1l0,0
	l10.8,15.3l33.9,48.2c16.9,19.2,41.5,28.7,70.4,27.9c31.7-1.3,60.5-18.7,76.3-46.2c7.7-13.3,11.8-28.4,12.1-43.7c0.1-5-0.2-10-1-15
	c-6.8-44.8-45.3-77.9-90.6-78c-29.2-0.2-56.7,13.7-73.9,37.3l-0.8,1.2c-1.1,1.5-2,3-3,4.6l-1.2,1.7c-9,9.8-24.1,10.4-33.9,1.4
	c-5-4.6-7.8-11-7.8-17.8c0-2.7,0.4-5.4,1.3-7.9l1.9-2.6c1.6-2.5,3.2-5,5-7.5l1.6-2.1c26-35.1,67.2-55.6,110.8-55.3
	c68.3,0.1,126.3,50,136.7,117.5C584.9,192.9,585.5,200.5,585.3,208.1z"/>
</svg>
