<?xml version="1.0" encoding="UTF-8"?><svg id="Capa_1" xmlns="http://www.w3.org/2000/svg" viewBox="0 0 345.56 105.38"><defs><style>.cls-1{fill:#41ac9c;}</style></defs><path class="cls-1" d="m253.03,7.27v68.57c.06,1.86-.6,3.67-1.84,5.06-2.52,2.64-6.7,2.74-9.35.22-.08-.07-.15-.15-.22-.22-1.28-1.37-1.96-3.19-1.9-5.06v-2.69c-2.24,2.48-4.86,4.58-7.77,6.23-5.16,2.93-11.01,4.43-16.94,4.33-6.16.1-12.23-1.44-17.59-4.46-5.3-3.06-9.58-7.61-12.32-13.08-3.03-5.74-4.55-12.74-4.55-21V7.27c-.05-1.87.64-3.69,1.92-5.06,1.22-1.32,2.95-2.05,4.75-2,1.84-.06,3.62.67,4.89,2,1.27,1.37,1.96,3.19,1.91,5.06v37.93c-.18,4.96.87,9.89,3.05,14.35,1.83,3.63,4.76,6.59,8.36,8.47,3.72,1.86,7.84,2.79,12,2.72,3.94.09,7.84-.8,11.35-2.59,3.23-1.69,5.96-4.19,7.93-7.26,1.98-3.03,3.03-6.57,3-10.19V7.27c-.09-1.91.6-3.77,1.9-5.17,2.65-2.62,6.92-2.62,9.57,0,1.27,1.41,1.94,3.27,1.85,5.17Z"/><path class="cls-1" d="m340.4,20.49c-3.26-6.13-8.06-11.3-13.94-15-12.27-7.32-27.58-7.32-39.85,0-5.91,3.68-10.74,8.85-14,15-3.51,6.59-5.29,13.96-5.18,21.42-.12,7.4,1.53,14.72,4.82,21.35,3,6.04,7.53,11.19,13.15,14.93,11.37,7.3,25.94,7.36,37.37.15,3.67-2.41,6.88-5.46,9.48-9v6.78c-.06,1.84.6,3.64,1.84,5,1.22,1.36,2.98,2.11,4.81,2.05,1.8.03,3.53-.72,4.74-2.05,1.27-1.35,1.95-3.15,1.91-5v-34.21c.13-7.46-1.64-14.83-5.15-21.42Zm-11,36.35c-2.11,4.26-5.35,7.86-9.36,10.41-8.21,5.03-18.54,5.03-26.75,0-4.01-2.57-7.26-6.16-9.42-10.41-4.6-9.47-4.6-20.53,0-30,2.16-4.24,5.41-7.83,9.42-10.4,8.24-5.03,18.59-5.03,26.83,0,3.97,2.57,7.17,6.17,9.28,10.4,4.5,9.5,4.48,20.52-.05,30h.05Z"/><path class="cls-1" d="m167.88,42.64v57.12c0,3.1-2.79,5.61-6.26,5.62h-.02c-3.46,0-6.27-2.51-6.27-5.61h0V34.76c0-3.1,2.81-5.61,6.27-5.61h3.43c.17-.02.34-.02.5,0,.78,2.16,1.37,4.37,1.76,6.61.4,2.26.58,4.55.53,6.84l.06.04h0Z"/><path class="cls-1" d="m167.8,42.64c-.09,7.06-2,13.97-5.55,20.07-7.18,12.5-20.28,20.43-34.69,21-12.95.44-24.44-4.29-32.37-13.27l-1.56-2-7.8-11.12h0l-3.48-5-3-4.25-4.1-5.85-2.3-3.29-.19-.26-7.93-11.3c-8.18-12.8-25.19-16.55-38-8.36-12.8,8.18-16.55,25.19-8.36,38,8.18,12.8,25.19,16.55,38,8.36,2.58-1.65,4.86-3.72,6.76-6.12l.12-.14.93-1.27.43-.6c.36-.52.79-.98,1.28-1.38,2.99-2.63,7.56-2.34,10.19.65,1.87,2.13,2.33,5.15,1.16,7.74-.04.11-.09.22-.14.32-.32.43-.61.87-.92,1.28l-.65.73c-.4.43-.78.87-1.17,1.28-14.18,18.12-40.37,21.3-58.48,7.12C-2.14,60.79-5.32,34.61,8.86,16.49,23.04-1.63,49.23-4.81,67.34,9.37c3.65,2.86,6.8,6.3,9.31,10.19l1.27,1.82,5.11,7.18c1.27,1.76,2.55,3.55,3.71,5.31l1.5,2.16h0v.08c1.44,2,2.86,4.02,4.26,6.06h0l3.25,4.59,10.2,14.48c5.1,5.78,12.5,8.62,21.18,8.4,9.54-.38,18.23-5.63,23-13.9,2.32-4.01,3.57-8.56,3.64-13.19.04-1.51-.06-3.01-.3-4.5-2.06-13.48-13.64-23.45-27.28-23.48-8.79-.07-17.07,4.11-22.24,11.22l-.24.35c-.32.44-.61.92-.91,1.39l-.35.51c-2.7,2.94-7.26,3.13-10.2.44-1.49-1.37-2.34-3.3-2.34-5.33,0-.81.14-1.61.4-2.38l.56-.79c.48-.77,1-1.52,1.49-2.24l.47-.64C100.66,6.55,113.05.36,126.19.44c20.56.05,38.02,15.06,41.15,35.38.36,2.25.51,4.53.46,6.81h0Z"/></svg>